<?xml version="1.0" encoding="UTF-8" standalone="no"?>
<!DOCTYPE svg PUBLIC "-//W3C//DTD SVG 1.1//EN" "http://www.w3.org/Graphics/SVG/1.1/DTD/svg11.dtd">
<svg width="100%" height="100%" viewBox="0 0 2835 597" version="1.1" xmlns="http://www.w3.org/2000/svg" xmlns:xlink="http://www.w3.org/1999/xlink" xml:space="preserve" xmlns:serif="http://www.serif.com/" style="fill-rule:evenodd;clip-rule:evenodd;stroke-linejoin:round;stroke-miterlimit:2;">
    <g transform="matrix(1,0,0,1,-4789.1,-5314.4)">
        <g transform="matrix(3.82963,0,0,7.83382,4545.27,1925.47)">
            <g transform="matrix(1,0,0,0.401338,0,136.432)">
                <g transform="matrix(0.261122,0,0,0.318066,-1186.87,-145.743)">
                    <path d="M5073.1,2778.36C5229.85,2778.36 5357.1,2905.62 5357.1,3062.36C5357.1,3219.11 5229.85,3346.36 5073.1,3346.36C4916.36,3346.36 4789.1,3219.11 4789.1,3062.36C4789.1,2905.62 4916.36,2778.36 5073.1,2778.36ZM4994.33,2890.81C4995.24,2880.62 5003.82,2872.61 5014.25,2872.61L5048.76,2872.61C5059.79,2872.61 5068.76,2881.57 5068.76,2892.61C5068.76,2903.65 5059.79,2912.61 5048.76,2912.61L5034.25,2912.61L5034.25,3130.26C5036.64,3122.77 5040.37,3115.72 5045.2,3109.52C5051.06,3101.99 5058.53,3095.73 5066.97,3091.28C5072.43,3088.41 5078.28,3086.3 5084.31,3085.04C5087.48,3084.37 5090.69,3083.94 5093.93,3083.74C5095.64,3083.63 5097.37,3083.56 5099.09,3083.65L5099.59,3083.68C5099.85,3083.7 5099.84,3083.7 5100.1,3083.73L5100.6,3083.79C5100.85,3083.83 5100.84,3083.83 5101.1,3083.87L5101.28,3083.9C5102.32,3084.08 5103.34,3084.33 5104.32,3084.67L5104.63,3084.77L5105.36,3085.05L5106.04,3085.34L5106.7,3085.65L5107.08,3085.84C5113.47,3089.16 5117.86,3095.82 5117.9,3103.51C5118.07,3140.51 5088.18,3170.69 5051.19,3170.87C5049.29,3170.88 5047.45,3170.62 5045.71,3170.13L5044.96,3169.91L5044.77,3169.85C5044.54,3169.77 5044.54,3169.77 5044.31,3169.68L5044.23,3169.66C5043.74,3169.47 5043.25,3169.28 5042.78,3169.06L5042.51,3168.93C5055.35,3194.53 5081.84,3212.11 5112.41,3212.11C5155.55,3212.11 5190.57,3177.09 5190.57,3133.95C5190.57,3090.82 5155.55,3055.8 5112.41,3055.8C5081.59,3055.8 5056.58,3030.78 5056.58,2999.96C5056.58,2969.15 5081.59,2944.13 5112.41,2944.13L5113.85,2944.15C5144,2944.91 5168.24,2969.63 5168.24,2999.96C5168.24,3009.56 5165.82,3018.59 5161.55,3026.48C5202.26,3045.14 5230.57,3086.27 5230.57,3133.95C5230.57,3199.17 5177.62,3252.11 5112.41,3252.11C5112.41,3252.11 4985.1,3252.11 4985.1,3252.11C4974.06,3252.11 4965.1,3243.15 4965.1,3232.11C4965.1,3221.07 4974.06,3212.11 4985.1,3212.11L5023.82,3212.11C5005.42,3191.27 4994.25,3163.91 4994.25,3133.95L4994.25,3126.01L4994.1,3126.12C4993.1,3126.84 4992.04,3127.46 4990.93,3127.98L4990.76,3128.06C4990.28,3128.28 4989.8,3128.48 4989.3,3128.66L4989.23,3128.69C4988.99,3128.77 4989,3128.77 4988.77,3128.85L4988.57,3128.91L4987.82,3129.14C4986.08,3129.62 4984.25,3129.88 4982.35,3129.87C4945.35,3129.69 4915.46,3099.51 4915.64,3062.52C4915.68,3054.83 4920.06,3048.16 4926.45,3044.85L4926.84,3044.65L4927.5,3044.34L4928.17,3044.06L4928.9,3043.78L4929.21,3043.67C4930.19,3043.34 4931.21,3043.08 4932.25,3042.9L4932.44,3042.87C4932.69,3042.83 4932.69,3042.83 4932.94,3042.8L4933.44,3042.74C4933.69,3042.71 4933.69,3042.71 4933.94,3042.69L4934.45,3042.65C4936.16,3042.56 4937.89,3042.64 4939.61,3042.74C4942.84,3042.95 4946.06,3043.38 4949.23,3044.04C4955.26,3045.31 4961.11,3047.42 4966.56,3050.29C4975.01,3054.73 4982.47,3060.99 4988.34,3068.52C4990.55,3071.36 4992.53,3074.38 4994.25,3077.53L4994.25,2892.61L4994.28,2891.54L4994.33,2890.81ZM5112.41,3015.8C5121.15,3015.8 5128.24,3008.7 5128.24,2999.96C5128.24,2991.22 5121.15,2984.13 5112.41,2984.13L5111.6,2984.15L5110.79,2984.21C5102.81,2985.02 5096.58,2991.77 5096.58,2999.96C5096.58,3008.7 5103.67,3015.8 5112.41,3015.8Z" style="fill:rgb(238,149,145);"/>
                </g>
                <g transform="matrix(0.989892,0,0,1.20576,-537.611,372.296)">
                    <g transform="matrix(101.783,0,0,101.783,781.507,428.341)">
                        <path d="M0.58,-0.307C0.589,-0.307 0.595,-0.303 0.6,-0.294C0.605,-0.285 0.607,-0.274 0.607,-0.261C0.607,-0.244 0.605,-0.232 0.6,-0.223C0.595,-0.214 0.588,-0.207 0.578,-0.204C0.538,-0.19 0.494,-0.182 0.446,-0.18C0.433,-0.125 0.407,-0.08 0.371,-0.046C0.333,-0.012 0.293,0.005 0.248,0.005C0.181,0.005 0.132,-0.021 0.101,-0.072C0.07,-0.123 0.055,-0.198 0.055,-0.295C0.055,-0.381 0.066,-0.474 0.087,-0.576C0.108,-0.677 0.139,-0.763 0.181,-0.834C0.222,-0.905 0.27,-0.94 0.327,-0.94C0.358,-0.94 0.382,-0.927 0.401,-0.901C0.42,-0.874 0.429,-0.84 0.429,-0.798C0.429,-0.743 0.419,-0.689 0.398,-0.635C0.377,-0.581 0.343,-0.524 0.295,-0.465C0.34,-0.462 0.376,-0.443 0.404,-0.41C0.432,-0.376 0.449,-0.334 0.454,-0.285C0.485,-0.287 0.523,-0.294 0.566,-0.305C0.57,-0.306 0.575,-0.307 0.58,-0.307ZM0.304,-0.841C0.291,-0.841 0.276,-0.821 0.261,-0.782C0.245,-0.742 0.23,-0.688 0.217,-0.62C0.204,-0.552 0.194,-0.478 0.187,-0.397C0.231,-0.478 0.266,-0.549 0.293,-0.611C0.319,-0.672 0.332,-0.727 0.332,-0.775C0.332,-0.796 0.33,-0.813 0.325,-0.824C0.32,-0.835 0.313,-0.841 0.304,-0.841ZM0.252,-0.101C0.273,-0.101 0.291,-0.11 0.307,-0.127C0.323,-0.144 0.334,-0.169 0.339,-0.202C0.318,-0.216 0.303,-0.234 0.292,-0.257C0.281,-0.28 0.275,-0.304 0.275,-0.329C0.275,-0.338 0.276,-0.351 0.279,-0.367L0.276,-0.367C0.249,-0.367 0.226,-0.354 0.208,-0.327C0.189,-0.3 0.18,-0.263 0.18,-0.218C0.18,-0.18 0.187,-0.151 0.202,-0.131C0.216,-0.111 0.233,-0.101 0.252,-0.101Z" style="fill:rgb(131,131,131);fill-rule:nonzero;"/>
                    </g>
                    <g transform="matrix(101.783,0,0,101.783,829.65,428.341)">
                        <path d="M0.494,-0.223C0.503,-0.223 0.509,-0.219 0.515,-0.211C0.52,-0.203 0.522,-0.192 0.522,-0.178C0.522,-0.151 0.516,-0.131 0.503,-0.116C0.478,-0.086 0.444,-0.058 0.399,-0.033C0.354,-0.008 0.305,0.005 0.254,0.005C0.184,0.005 0.13,-0.014 0.091,-0.052C0.052,-0.09 0.033,-0.142 0.033,-0.208C0.033,-0.254 0.043,-0.297 0.062,-0.337C0.081,-0.376 0.108,-0.408 0.143,-0.431C0.177,-0.454 0.216,-0.466 0.259,-0.466C0.298,-0.466 0.329,-0.455 0.352,-0.432C0.375,-0.409 0.387,-0.377 0.387,-0.338C0.387,-0.292 0.371,-0.253 0.338,-0.22C0.305,-0.187 0.249,-0.16 0.17,-0.141C0.187,-0.11 0.218,-0.095 0.265,-0.095C0.295,-0.095 0.329,-0.106 0.368,-0.127C0.406,-0.148 0.439,-0.175 0.467,-0.209C0.475,-0.218 0.484,-0.223 0.494,-0.223ZM0.242,-0.368C0.217,-0.368 0.197,-0.354 0.18,-0.325C0.163,-0.296 0.154,-0.262 0.154,-0.221L0.154,-0.219C0.193,-0.228 0.224,-0.242 0.247,-0.261C0.27,-0.28 0.281,-0.301 0.281,-0.326C0.281,-0.339 0.278,-0.349 0.271,-0.357C0.264,-0.364 0.254,-0.368 0.242,-0.368Z" style="fill:rgb(131,131,131);fill-rule:nonzero;"/>
                    </g>
                    <g transform="matrix(101.783,0,0,101.783,869.141,428.341)">
                        <path d="M0.171,0.005C0.13,0.005 0.097,-0.01 0.072,-0.04C0.047,-0.07 0.035,-0.109 0.035,-0.158C0.035,-0.211 0.047,-0.262 0.072,-0.31C0.097,-0.357 0.13,-0.396 0.171,-0.425C0.212,-0.454 0.255,-0.468 0.301,-0.468C0.316,-0.468 0.326,-0.465 0.331,-0.46C0.335,-0.454 0.34,-0.444 0.343,-0.429C0.357,-0.432 0.372,-0.433 0.387,-0.433C0.42,-0.433 0.436,-0.421 0.436,-0.398C0.436,-0.384 0.431,-0.351 0.421,-0.298C0.406,-0.221 0.398,-0.168 0.398,-0.138C0.398,-0.128 0.401,-0.12 0.406,-0.114C0.411,-0.108 0.417,-0.105 0.425,-0.105C0.438,-0.105 0.453,-0.113 0.471,-0.13C0.489,-0.146 0.513,-0.172 0.544,-0.209C0.552,-0.218 0.561,-0.223 0.571,-0.223C0.58,-0.223 0.587,-0.219 0.592,-0.211C0.596,-0.203 0.599,-0.192 0.599,-0.178C0.599,-0.151 0.593,-0.131 0.58,-0.116C0.553,-0.082 0.524,-0.053 0.493,-0.03C0.462,-0.007 0.433,0.005 0.404,0.005C0.382,0.005 0.362,-0.003 0.344,-0.018C0.325,-0.033 0.311,-0.053 0.302,-0.079C0.267,-0.023 0.224,0.005 0.171,0.005ZM0.207,-0.096C0.222,-0.096 0.236,-0.105 0.249,-0.122C0.262,-0.139 0.272,-0.162 0.278,-0.191L0.315,-0.375C0.287,-0.374 0.261,-0.364 0.238,-0.344C0.214,-0.323 0.195,-0.296 0.181,-0.263C0.167,-0.23 0.16,-0.194 0.16,-0.157C0.16,-0.136 0.164,-0.121 0.173,-0.111C0.181,-0.101 0.192,-0.096 0.207,-0.096Z" style="fill:rgb(131,131,131);fill-rule:nonzero;"/>
                    </g>
                    <g transform="matrix(101.783,0,0,101.783,916.979,428.341)">
                        <path d="M0.15,0.005C0.12,0.005 0.095,-0.009 0.077,-0.037C0.057,-0.064 0.048,-0.099 0.048,-0.14C0.048,-0.19 0.051,-0.236 0.058,-0.278C0.065,-0.319 0.076,-0.363 0.091,-0.41C0.098,-0.43 0.107,-0.444 0.119,-0.453C0.131,-0.462 0.15,-0.466 0.176,-0.466C0.191,-0.466 0.201,-0.464 0.207,-0.459C0.212,-0.454 0.215,-0.447 0.215,-0.438C0.215,-0.433 0.211,-0.415 0.204,-0.384C0.197,-0.359 0.192,-0.337 0.188,-0.317C0.175,-0.247 0.168,-0.2 0.168,-0.177C0.168,-0.163 0.17,-0.153 0.173,-0.148C0.176,-0.142 0.182,-0.139 0.189,-0.139C0.199,-0.139 0.212,-0.149 0.227,-0.169C0.242,-0.189 0.258,-0.219 0.275,-0.26C0.292,-0.301 0.308,-0.351 0.324,-0.41C0.329,-0.43 0.338,-0.444 0.349,-0.453C0.36,-0.462 0.376,-0.466 0.398,-0.466C0.413,-0.466 0.424,-0.464 0.43,-0.461C0.436,-0.457 0.439,-0.45 0.439,-0.44C0.439,-0.423 0.431,-0.378 0.414,-0.303C0.395,-0.218 0.386,-0.165 0.386,-0.145C0.386,-0.132 0.389,-0.123 0.394,-0.116C0.399,-0.109 0.406,-0.105 0.415,-0.105C0.428,-0.105 0.444,-0.113 0.463,-0.13C0.481,-0.146 0.505,-0.172 0.536,-0.209C0.544,-0.218 0.553,-0.223 0.563,-0.223C0.572,-0.223 0.579,-0.219 0.584,-0.211C0.588,-0.203 0.591,-0.192 0.591,-0.178C0.591,-0.151 0.585,-0.131 0.572,-0.116C0.543,-0.081 0.513,-0.052 0.48,-0.029C0.447,-0.006 0.409,0.005 0.367,0.005C0.335,0.005 0.312,-0.007 0.297,-0.032C0.282,-0.057 0.274,-0.091 0.274,-0.136C0.263,-0.091 0.246,-0.056 0.223,-0.032C0.2,-0.007 0.176,0.005 0.15,0.005Z" style="fill:rgb(131,131,131);fill-rule:nonzero;"/>
                    </g>
                    <g transform="matrix(101.783,0,0,101.783,964.003,428.341)">
                        <path d="M0.494,-0.223C0.503,-0.223 0.509,-0.219 0.515,-0.211C0.52,-0.203 0.522,-0.192 0.522,-0.178C0.522,-0.151 0.516,-0.131 0.503,-0.116C0.474,-0.081 0.443,-0.052 0.409,-0.029C0.375,-0.006 0.336,0.005 0.292,0.005C0.156,0.005 0.088,-0.091 0.088,-0.282C0.088,-0.311 0.089,-0.341 0.091,-0.371L0.052,-0.371C0.032,-0.371 0.019,-0.375 0.012,-0.382C0.005,-0.389 0.001,-0.401 0.001,-0.417C0.001,-0.454 0.016,-0.473 0.046,-0.473L0.103,-0.473C0.114,-0.546 0.132,-0.613 0.155,-0.674C0.178,-0.735 0.207,-0.783 0.24,-0.819C0.273,-0.855 0.308,-0.873 0.346,-0.873C0.374,-0.873 0.396,-0.861 0.412,-0.836C0.428,-0.811 0.436,-0.78 0.436,-0.743C0.436,-0.64 0.393,-0.55 0.306,-0.473L0.418,-0.473C0.429,-0.473 0.436,-0.471 0.441,-0.466C0.446,-0.461 0.448,-0.453 0.448,-0.44C0.448,-0.394 0.41,-0.371 0.335,-0.371L0.213,-0.371C0.212,-0.338 0.211,-0.312 0.211,-0.293C0.211,-0.224 0.219,-0.175 0.236,-0.147C0.252,-0.119 0.278,-0.105 0.313,-0.105C0.342,-0.105 0.367,-0.114 0.389,-0.131C0.411,-0.148 0.437,-0.174 0.467,-0.209C0.475,-0.218 0.484,-0.223 0.494,-0.223ZM0.319,-0.777C0.309,-0.777 0.298,-0.764 0.286,-0.74C0.273,-0.715 0.262,-0.68 0.251,-0.636C0.24,-0.591 0.23,-0.542 0.223,-0.488C0.262,-0.522 0.292,-0.56 0.312,-0.603C0.331,-0.645 0.341,-0.683 0.341,-0.718C0.341,-0.757 0.334,-0.777 0.319,-0.777Z" style="fill:rgb(131,131,131);fill-rule:nonzero;"/>
                    </g>
                    <g transform="matrix(101.783,0,0,101.783,1004,428.341)">
                        <path d="M0.179,-0.532C0.151,-0.532 0.13,-0.539 0.116,-0.552C0.102,-0.565 0.095,-0.583 0.095,-0.606C0.095,-0.629 0.104,-0.649 0.123,-0.665C0.141,-0.68 0.164,-0.688 0.191,-0.688C0.216,-0.688 0.236,-0.682 0.251,-0.67C0.266,-0.658 0.274,-0.641 0.274,-0.619C0.274,-0.592 0.265,-0.571 0.248,-0.556C0.231,-0.54 0.208,-0.532 0.179,-0.532ZM0.171,0.005C0.128,0.005 0.096,-0.01 0.077,-0.041C0.057,-0.072 0.047,-0.112 0.047,-0.163C0.047,-0.193 0.051,-0.232 0.059,-0.279C0.066,-0.326 0.076,-0.369 0.088,-0.41C0.094,-0.431 0.102,-0.446 0.112,-0.454C0.122,-0.462 0.138,-0.466 0.16,-0.466C0.194,-0.466 0.211,-0.455 0.211,-0.432C0.211,-0.415 0.205,-0.377 0.192,-0.316C0.176,-0.243 0.168,-0.193 0.168,-0.167C0.168,-0.147 0.171,-0.132 0.176,-0.121C0.181,-0.11 0.19,-0.105 0.203,-0.105C0.215,-0.105 0.23,-0.113 0.248,-0.13C0.266,-0.147 0.29,-0.173 0.32,-0.209C0.328,-0.218 0.337,-0.223 0.347,-0.223C0.356,-0.223 0.363,-0.219 0.368,-0.211C0.373,-0.203 0.375,-0.192 0.375,-0.178C0.375,-0.151 0.369,-0.131 0.356,-0.116C0.29,-0.035 0.228,0.005 0.171,0.005Z" style="fill:rgb(131,131,131);fill-rule:nonzero;"/>
                    </g>
                    <g transform="matrix(101.783,0,0,101.783,1029.04,428.341)">
                        <path d="M0.494,-0.223C0.503,-0.223 0.509,-0.219 0.515,-0.211C0.52,-0.203 0.522,-0.192 0.522,-0.178C0.522,-0.151 0.516,-0.131 0.503,-0.116C0.478,-0.086 0.444,-0.058 0.399,-0.033C0.354,-0.008 0.305,0.005 0.254,0.005C0.184,0.005 0.13,-0.014 0.091,-0.052C0.052,-0.09 0.033,-0.142 0.033,-0.208C0.033,-0.254 0.043,-0.297 0.062,-0.337C0.081,-0.376 0.108,-0.408 0.143,-0.431C0.177,-0.454 0.216,-0.466 0.259,-0.466C0.298,-0.466 0.329,-0.455 0.352,-0.432C0.375,-0.409 0.387,-0.377 0.387,-0.338C0.387,-0.292 0.371,-0.253 0.338,-0.22C0.305,-0.187 0.249,-0.16 0.17,-0.141C0.187,-0.11 0.218,-0.095 0.265,-0.095C0.295,-0.095 0.329,-0.106 0.368,-0.127C0.406,-0.148 0.439,-0.175 0.467,-0.209C0.475,-0.218 0.484,-0.223 0.494,-0.223ZM0.242,-0.368C0.217,-0.368 0.197,-0.354 0.18,-0.325C0.163,-0.296 0.154,-0.262 0.154,-0.221L0.154,-0.219C0.193,-0.228 0.224,-0.242 0.247,-0.261C0.27,-0.28 0.281,-0.301 0.281,-0.326C0.281,-0.339 0.278,-0.349 0.271,-0.357C0.264,-0.364 0.254,-0.368 0.242,-0.368Z" style="fill:rgb(131,131,131);fill-rule:nonzero;"/>
                    </g>
                    <g transform="matrix(101.783,0,0,101.783,1069.04,428.341)">
                        <path d="M0.234,0.027C0.199,0.027 0.173,0.019 0.155,0.003C0.136,-0.013 0.127,-0.031 0.127,-0.051C0.127,-0.068 0.133,-0.083 0.146,-0.096C0.159,-0.109 0.177,-0.115 0.202,-0.115C0.211,-0.115 0.221,-0.114 0.233,-0.113C0.244,-0.111 0.253,-0.11 0.259,-0.109C0.258,-0.126 0.255,-0.143 0.248,-0.158C0.241,-0.173 0.232,-0.188 0.221,-0.203C0.21,-0.217 0.2,-0.229 0.191,-0.24C0.17,-0.201 0.15,-0.168 0.13,-0.142C0.109,-0.116 0.087,-0.091 0.063,-0.068C0.051,-0.056 0.038,-0.05 0.025,-0.05C0.014,-0.05 0.006,-0.054 -0.001,-0.062C-0.008,-0.069 -0.011,-0.079 -0.011,-0.09C-0.011,-0.103 -0.006,-0.116 0.003,-0.127L0.016,-0.143C0.053,-0.188 0.08,-0.226 0.099,-0.255C0.11,-0.274 0.124,-0.3 0.139,-0.333C0.154,-0.365 0.169,-0.398 0.184,-0.433C0.197,-0.462 0.223,-0.477 0.263,-0.477C0.282,-0.477 0.295,-0.475 0.302,-0.472C0.309,-0.469 0.313,-0.463 0.313,-0.456C0.313,-0.452 0.312,-0.446 0.309,-0.437C0.306,-0.428 0.303,-0.42 0.298,-0.411C0.286,-0.387 0.28,-0.367 0.28,-0.35C0.28,-0.34 0.284,-0.329 0.291,-0.317C0.298,-0.305 0.308,-0.29 0.323,-0.272C0.344,-0.244 0.361,-0.22 0.372,-0.201C0.383,-0.181 0.388,-0.159 0.388,-0.136C0.388,-0.129 0.387,-0.12 0.386,-0.108C0.419,-0.121 0.457,-0.154 0.501,-0.209C0.509,-0.218 0.518,-0.223 0.528,-0.223C0.537,-0.223 0.544,-0.219 0.549,-0.211C0.554,-0.203 0.556,-0.192 0.556,-0.178C0.556,-0.153 0.55,-0.132 0.537,-0.116C0.504,-0.075 0.472,-0.047 0.442,-0.032C0.411,-0.017 0.374,-0.008 0.329,-0.007C0.302,0.016 0.271,0.027 0.234,0.027Z" style="fill:rgb(131,131,131);fill-rule:nonzero;"/>
                    </g>
                    <g transform="matrix(101.783,0,0,101.783,1112.5,428.341)">
                        <path d="M0.427,-0.223C0.436,-0.223 0.443,-0.219 0.448,-0.211C0.452,-0.203 0.455,-0.192 0.455,-0.178C0.455,-0.151 0.449,-0.131 0.436,-0.116C0.407,-0.081 0.376,-0.052 0.343,-0.029C0.309,-0.006 0.271,0.005 0.228,0.005C0.169,0.005 0.126,-0.022 0.098,-0.075C0.069,-0.128 0.055,-0.197 0.055,-0.282C0.055,-0.363 0.066,-0.456 0.087,-0.56C0.108,-0.664 0.138,-0.753 0.18,-0.828C0.221,-0.903 0.269,-0.94 0.326,-0.94C0.358,-0.94 0.383,-0.925 0.402,-0.896C0.42,-0.866 0.429,-0.823 0.429,-0.768C0.429,-0.689 0.407,-0.597 0.363,-0.492C0.319,-0.387 0.259,-0.284 0.184,-0.181C0.189,-0.154 0.196,-0.134 0.207,-0.123C0.218,-0.111 0.232,-0.105 0.249,-0.105C0.276,-0.105 0.3,-0.113 0.321,-0.129C0.342,-0.144 0.368,-0.171 0.4,-0.209C0.408,-0.218 0.417,-0.223 0.427,-0.223ZM0.304,-0.841C0.289,-0.841 0.271,-0.813 0.252,-0.758C0.233,-0.703 0.216,-0.634 0.201,-0.552C0.186,-0.47 0.178,-0.391 0.177,-0.316C0.224,-0.394 0.262,-0.472 0.29,-0.551C0.318,-0.629 0.332,-0.7 0.332,-0.765C0.332,-0.816 0.323,-0.841 0.304,-0.841Z" style="fill:rgb(238,149,145);fill-rule:nonzero;"/>
                    </g>
                    <g transform="matrix(101.783,0,0,101.783,1145.69,428.341)">
                        <path d="M0.179,-0.532C0.151,-0.532 0.13,-0.539 0.116,-0.552C0.102,-0.565 0.095,-0.583 0.095,-0.606C0.095,-0.629 0.104,-0.649 0.123,-0.665C0.141,-0.68 0.164,-0.688 0.191,-0.688C0.216,-0.688 0.236,-0.682 0.251,-0.67C0.266,-0.658 0.274,-0.641 0.274,-0.619C0.274,-0.592 0.265,-0.571 0.248,-0.556C0.231,-0.54 0.208,-0.532 0.179,-0.532ZM0.171,0.005C0.128,0.005 0.096,-0.01 0.077,-0.041C0.057,-0.072 0.047,-0.112 0.047,-0.163C0.047,-0.193 0.051,-0.232 0.059,-0.279C0.066,-0.326 0.076,-0.369 0.088,-0.41C0.094,-0.431 0.102,-0.446 0.112,-0.454C0.122,-0.462 0.138,-0.466 0.16,-0.466C0.194,-0.466 0.211,-0.455 0.211,-0.432C0.211,-0.415 0.205,-0.377 0.192,-0.316C0.176,-0.243 0.168,-0.193 0.168,-0.167C0.168,-0.147 0.171,-0.132 0.176,-0.121C0.181,-0.11 0.19,-0.105 0.203,-0.105C0.215,-0.105 0.23,-0.113 0.248,-0.13C0.266,-0.147 0.29,-0.173 0.32,-0.209C0.328,-0.218 0.337,-0.223 0.347,-0.223C0.356,-0.223 0.363,-0.219 0.368,-0.211C0.373,-0.203 0.375,-0.192 0.375,-0.178C0.375,-0.151 0.369,-0.131 0.356,-0.116C0.29,-0.035 0.228,0.005 0.171,0.005Z" style="fill:rgb(238,149,145);fill-rule:nonzero;"/>
                    </g>
                    <g transform="matrix(101.783,0,0,101.783,1169.71,428.341)">
                        <path d="M0.447,-0.28C0.466,-0.28 0.475,-0.266 0.475,-0.238C0.475,-0.185 0.434,-0.159 0.351,-0.159C0.335,-0.159 0.312,-0.162 0.282,-0.168C0.291,-0.127 0.298,-0.081 0.304,-0.031C0.309,0.02 0.312,0.061 0.312,0.094C0.312,0.166 0.3,0.221 0.277,0.259C0.254,0.297 0.223,0.316 0.185,0.316C0.137,0.316 0.103,0.282 0.083,0.214C0.062,0.146 0.052,0.043 0.052,-0.094C0.052,-0.222 0.066,-0.352 0.094,-0.484C0.121,-0.615 0.159,-0.724 0.208,-0.811C0.256,-0.897 0.309,-0.94 0.367,-0.94C0.398,-0.94 0.423,-0.926 0.441,-0.898C0.458,-0.87 0.467,-0.832 0.467,-0.785C0.467,-0.628 0.373,-0.458 0.186,-0.273C0.179,-0.208 0.176,-0.15 0.176,-0.101C0.176,-0.032 0.178,0.038 0.183,0.111C0.188,0.183 0.195,0.219 0.206,0.219C0.226,0.219 0.236,0.184 0.236,0.115C0.236,0.063 0.233,0.013 0.226,-0.036C0.219,-0.085 0.209,-0.136 0.197,-0.19C0.196,-0.199 0.199,-0.21 0.206,-0.223C0.212,-0.236 0.22,-0.248 0.229,-0.258C0.238,-0.268 0.247,-0.273 0.254,-0.273C0.267,-0.273 0.283,-0.272 0.302,-0.271C0.308,-0.27 0.315,-0.27 0.323,-0.27C0.35,-0.27 0.379,-0.272 0.412,-0.277C0.417,-0.278 0.423,-0.278 0.429,-0.279C0.435,-0.28 0.441,-0.28 0.447,-0.28ZM0.346,-0.841C0.334,-0.841 0.319,-0.821 0.302,-0.78C0.284,-0.739 0.266,-0.685 0.249,-0.619C0.232,-0.552 0.217,-0.481 0.204,-0.406C0.257,-0.467 0.298,-0.53 0.327,-0.596C0.356,-0.661 0.37,-0.723 0.371,-0.78C0.371,-0.821 0.363,-0.841 0.346,-0.841Z" style="fill:rgb(238,149,145);fill-rule:nonzero;"/>
                    </g>
                    <g transform="matrix(101.783,0,0,101.783,1205.43,428.341)">
                        <path d="M0.406,-0.193C0.415,-0.193 0.422,-0.189 0.427,-0.181C0.432,-0.173 0.434,-0.162 0.434,-0.148C0.434,-0.124 0.428,-0.103 0.417,-0.086C0.398,-0.057 0.374,-0.035 0.344,-0.019C0.313,-0.003 0.277,0.005 0.235,0.005C0.171,0.005 0.121,-0.014 0.086,-0.053C0.051,-0.091 0.033,-0.143 0.033,-0.208C0.033,-0.254 0.043,-0.297 0.062,-0.337C0.081,-0.376 0.108,-0.408 0.143,-0.431C0.177,-0.454 0.216,-0.466 0.259,-0.466C0.298,-0.466 0.329,-0.455 0.352,-0.432C0.375,-0.409 0.387,-0.377 0.387,-0.338C0.387,-0.292 0.371,-0.253 0.338,-0.22C0.305,-0.187 0.248,-0.16 0.169,-0.141C0.185,-0.11 0.212,-0.095 0.25,-0.095C0.277,-0.095 0.3,-0.101 0.318,-0.114C0.335,-0.127 0.356,-0.148 0.379,-0.178C0.387,-0.188 0.396,-0.193 0.406,-0.193ZM0.242,-0.368C0.217,-0.368 0.197,-0.354 0.18,-0.325C0.163,-0.296 0.154,-0.262 0.154,-0.221L0.154,-0.219C0.193,-0.228 0.224,-0.242 0.247,-0.261C0.27,-0.28 0.281,-0.301 0.281,-0.326C0.281,-0.339 0.278,-0.349 0.271,-0.357C0.264,-0.364 0.254,-0.368 0.242,-0.368Z" style="fill:rgb(238,149,145);fill-rule:nonzero;"/>
                    </g>
                    <g transform="matrix(101.783,0,0,101.783,1251.84,428.341)">
                        <path d="M0.117,0.005C0.088,0.005 0.066,-0.003 0.051,-0.019C0.036,-0.035 0.028,-0.056 0.028,-0.082C0.028,-0.112 0.037,-0.136 0.054,-0.154C0.07,-0.172 0.094,-0.181 0.125,-0.181C0.154,-0.181 0.177,-0.174 0.192,-0.16C0.206,-0.145 0.214,-0.124 0.214,-0.096C0.214,-0.065 0.205,-0.041 0.188,-0.023C0.171,-0.004 0.147,0.005 0.117,0.005Z" style="fill:rgb(131,131,131);fill-rule:nonzero;"/>
                    </g>
                    <g transform="matrix(101.783,0,0,101.783,1276.98,428.341)">
                        <path d="M0.179,-0.532C0.151,-0.532 0.13,-0.539 0.116,-0.552C0.102,-0.565 0.095,-0.583 0.095,-0.606C0.095,-0.629 0.104,-0.649 0.123,-0.665C0.141,-0.68 0.164,-0.688 0.191,-0.688C0.216,-0.688 0.236,-0.682 0.251,-0.67C0.266,-0.658 0.274,-0.641 0.274,-0.619C0.274,-0.592 0.265,-0.571 0.248,-0.556C0.231,-0.54 0.208,-0.532 0.179,-0.532ZM0.171,0.005C0.128,0.005 0.096,-0.01 0.077,-0.041C0.057,-0.072 0.047,-0.112 0.047,-0.163C0.047,-0.193 0.051,-0.232 0.059,-0.279C0.066,-0.326 0.076,-0.369 0.088,-0.41C0.094,-0.431 0.102,-0.446 0.112,-0.454C0.122,-0.462 0.138,-0.466 0.16,-0.466C0.194,-0.466 0.211,-0.455 0.211,-0.432C0.211,-0.415 0.205,-0.377 0.192,-0.316C0.176,-0.243 0.168,-0.193 0.168,-0.167C0.168,-0.147 0.171,-0.132 0.176,-0.121C0.181,-0.11 0.19,-0.105 0.203,-0.105C0.215,-0.105 0.23,-0.113 0.248,-0.13C0.266,-0.147 0.29,-0.173 0.32,-0.209C0.328,-0.218 0.337,-0.223 0.347,-0.223C0.356,-0.223 0.363,-0.219 0.368,-0.211C0.373,-0.203 0.375,-0.192 0.375,-0.178C0.375,-0.151 0.369,-0.131 0.356,-0.116C0.29,-0.035 0.228,0.005 0.171,0.005Z" style="fill:rgb(131,131,131);fill-rule:nonzero;"/>
                    </g>
                    <g transform="matrix(101.783,0,0,101.783,1302.02,428.341)">
                        <path d="M0.389,-0.083L0.396,-0.083L0.396,-0.058C0.398,-0.018 0.421,0.005 0.458,0.005C0.5,0.005 0.522,-0.021 0.522,-0.066L0.522,-0.712C0.522,-0.757 0.499,-0.783 0.458,-0.783C0.416,-0.783 0.393,-0.757 0.393,-0.712L0.393,-0.441L0.387,-0.441C0.367,-0.494 0.311,-0.526 0.239,-0.526C0.119,-0.526 0.044,-0.439 0.044,-0.299L0.044,-0.22C0.044,-0.081 0.119,0.007 0.237,0.007C0.312,0.007 0.373,-0.029 0.389,-0.083ZM0.176,-0.233L0.176,-0.286C0.176,-0.372 0.215,-0.423 0.282,-0.423C0.348,-0.423 0.393,-0.372 0.393,-0.297L0.393,-0.228C0.393,-0.146 0.351,-0.096 0.284,-0.096C0.216,-0.096 0.176,-0.147 0.176,-0.233Z" style="fill:rgb(131,131,131);fill-rule:nonzero;"/>
                    </g>
                </g>
            </g>
        </g>
    </g>
</svg>
