<?xml version="1.0" encoding="UTF-8" standalone="no"?>
<!DOCTYPE svg PUBLIC "-//W3C//DTD SVG 1.1//EN" "http://www.w3.org/Graphics/SVG/1.1/DTD/svg11.dtd">
<svg width="100%" height="100%" viewBox="0 0 1209 1209" version="1.1" xmlns="http://www.w3.org/2000/svg" xmlns:xlink="http://www.w3.org/1999/xlink" xml:space="preserve" xmlns:serif="http://www.serif.com/" style="fill-rule:evenodd;clip-rule:evenodd;stroke-linejoin:round;stroke-miterlimit:2;">
    <g transform="matrix(1,0,0,1,-235.578,-4246.59)">
        <g transform="matrix(1.49722,0,0,1.49722,31.5784,4042.59)">
            <g transform="matrix(0.555361,0,0,0.555361,45.7284,82.3823)">
                <path d="M1617,824C1617,422.489 1291.51,97 890,97C889.824,97 889.647,97 889.471,97C696.799,97 512.018,173.539 375.778,309.778C239.539,446.018 163,630.799 163,823.471L163,824.529C163,1017.2 239.539,1201.98 375.778,1338.22C512.018,1474.46 696.799,1551 889.471,1551L890,1551C1291.51,1551 1617,1225.51 1617,824C1617,824 1617,824 1617,824Z" style="fill:rgb(255,233,233);"/>
            </g>
            <g transform="matrix(1.9268,0,0,1.9268,-500.472,-207.997)">
                <g transform="matrix(0.667904,0,0,0.667904,235.436,-120.736)">
                    <circle cx="456" cy="762" r="284" style="fill:rgb(252,203,203);"/>
                </g>
                <g transform="matrix(0.769145,0,0,0.769145,-1438.85,-58.8445)">
                    <path d="M2494.27,407.817C2496,398.526 2504.15,391.481 2513.94,391.481L2548.44,391.481C2559.48,391.481 2568.44,400.443 2568.44,411.481C2568.44,422.52 2559.48,431.481 2548.44,431.481L2533.94,431.481L2533.94,649.128C2535.84,643.178 2538.58,637.503 2542.05,632.311C2549.93,620.528 2561.53,611.381 2574.86,606.52C2581.97,603.924 2589.49,602.593 2597.05,602.485L2597.49,602.482C2608.53,602.429 2617.53,611.348 2617.58,622.386C2617.76,659.381 2587.87,689.56 2550.87,689.736C2549.44,689.734 2548.01,689.598 2546.6,689.299C2545.07,688.973 2543.59,688.464 2542.19,687.793C2555.03,713.392 2581.53,730.981 2612.1,730.981C2655.23,730.981 2690.25,695.96 2690.25,652.824C2690.25,609.687 2655.23,574.666 2612.1,574.666C2581.28,574.666 2556.26,549.648 2556.26,518.832C2556.26,488.017 2581.28,462.999 2612.1,462.999C2642.91,462.999 2667.93,488.017 2667.93,518.832C2667.93,528.428 2665.5,537.462 2661.23,545.351C2701.95,564.015 2730.25,605.14 2730.25,652.824C2730.25,718.037 2677.31,770.981 2612.1,770.981L2484.79,770.981C2473.75,770.981 2464.79,762.02 2464.79,750.981C2464.79,739.943 2473.75,730.981 2484.79,730.981L2523.51,730.981C2505.11,710.14 2493.94,682.776 2493.94,652.824C2493.94,652.824 2493.94,644.876 2493.94,644.876C2493.82,644.961 2493.7,645.045 2493.59,645.128L2493.43,645.237C2491.95,646.239 2490.37,647.04 2488.68,647.636L2488.45,647.715C2488.14,647.817 2487.83,647.913 2487.51,648.003L2487.03,648.13C2486.47,648.269 2485.9,648.386 2485.33,648.482L2484.67,648.576C2484.26,648.628 2483.85,648.667 2483.44,648.694L2482.76,648.727L2482.55,648.732C2482.29,648.736 2482.29,648.736 2482.03,648.736C2445.04,648.56 2415.15,618.381 2415.32,581.386C2415.36,574.745 2418.63,568.872 2423.63,565.258L2423.83,565.118C2423.96,565.026 2424.09,564.935 2424.22,564.846L2424.81,564.469C2425.73,563.896 2426.71,563.397 2427.72,562.979C2429.23,562.357 2430.84,561.915 2432.5,561.68C2432.84,561.632 2433.17,561.593 2433.51,561.563L2434.14,561.516L2434.39,561.503C2434.73,561.487 2435.07,561.48 2435.42,561.482C2460.67,561.602 2482.61,575.698 2493.94,596.394L2493.94,411.481L2493.94,411.352L2493.94,411.223L2493.94,411.094L2493.94,410.966L2493.95,410.837L2493.95,410.709L2493.96,410.581L2493.96,410.453L2493.97,410.325L2493.98,410.198L2493.99,410.071L2494,409.944L2494.01,409.817L2494.02,409.69L2494.03,409.564L2494.04,409.438L2494.05,409.312L2494.07,409.186L2494.08,409.061L2494.1,408.936L2494.12,408.811L2494.13,408.686L2494.15,408.562L2494.17,408.437L2494.19,408.313L2494.21,408.19L2494.23,408.066L2494.25,407.943L2494.27,407.82C2494.27,407.82 2494.27,407.817 2494.27,407.817ZM2612.1,534.666C2620.84,534.666 2627.93,527.571 2627.93,518.832C2627.93,510.094 2620.84,502.999 2612.1,502.999C2603.36,502.999 2596.26,510.094 2596.26,518.832C2596.26,527.571 2603.36,534.666 2612.1,534.666Z" style="fill:rgb(131,131,131);"/>
                </g>
            </g>
        </g>
    </g>
</svg>
