<svg width="18" height="12" viewBox="0 0 18 12" fill="none" xmlns="http://www.w3.org/2000/svg">
<path fill-rule="evenodd" clip-rule="evenodd" d="M18 1.5C18 1.08579 17.6642 0.75 17.25 0.75H3.09375C2.67954 0.75 2.34375 1.08579 2.34375 1.5C2.34375 1.91421 2.67954 2.25 3.09375 2.25H17.25C17.6642 2.25 18 1.91421 18 1.5ZM18 6C18 5.58579 17.6642 5.25 17.25 5.25H0.75C0.335787 5.25 0 5.58579 0 6C0 6.41421 0.335787 6.75 0.75 6.75H17.25C17.6642 6.75 18 6.41421 18 6ZM17.25 9.75C17.6642 9.75 18 10.0858 18 10.5C18 10.9142 17.6642 11.25 17.25 11.25H6.1875C5.77329 11.25 5.4375 10.9142 5.4375 10.5C5.4375 10.0858 5.77329 9.75 6.1875 9.75H17.25Z" fill="#888888"/>
</svg>
